<svg id="Layer_1" data-name="Layer 1" xmlns="http://www.w3.org/2000/svg" xmlns:xlink="http://www.w3.org/1999/xlink" viewBox="0 0 577 577"><defs><style>.cls-1{fill:none;}.cls-2{fill:#9277b4;}.cls-3{opacity:0.6;}.cls-4{clip-path:url(#clip-path);}.cls-5{fill:#020202;}.cls-6{opacity:0.45;}.cls-7{clip-path:url(#clip-path-2);}.cls-8{opacity:0.8;}.cls-9{clip-path:url(#clip-path-3);}.cls-10{clip-path:url(#clip-path-4);}.cls-11{clip-path:url(#clip-path-5);}</style><clipPath id="clip-path" transform="translate(-9.14 -87)"><rect class="cls-1" x="143.95" y="315.77" width="306.98" height="160.49"/></clipPath><clipPath id="clip-path-2" transform="translate(-9.14 -87)"><rect class="cls-1" x="143.95" y="130.9" width="153.52" height="345.36"/></clipPath><clipPath id="clip-path-3" transform="translate(-9.14 -87)"><rect class="cls-1" x="297.47" y="130.9" width="153.52" height="345.36"/></clipPath><clipPath id="clip-path-4" transform="translate(-9.14 -87)"><rect class="cls-1" x="143.95" y="414.66" width="153.52" height="216.24"/></clipPath><clipPath id="clip-path-5" transform="translate(-9.14 -87)"><rect class="cls-1" x="297.47" y="414.66" width="153.58" height="216.24"/></clipPath></defs><circle class="cls-2" cx="288.5" cy="288.5" r="288.5"/><g class="cls-3"><g class="cls-4"><path class="cls-5" d="M297.47,315.77,144,385.58l153.52,90.68,153.46-90.68Z" transform="translate(-9.14 -87)"/></g></g><g class="cls-6"><g class="cls-7"><path class="cls-5" d="M144,385.58l153.52,90.68V130.9Z" transform="translate(-9.14 -87)"/></g></g><g class="cls-8"><g class="cls-9"><path class="cls-5" d="M297.47,130.9V476.26l153.46-90.68Z" transform="translate(-9.14 -87)"/></g></g><g class="cls-6"><g class="cls-10"><path class="cls-5" d="M144,414.66,297.47,630.9V505.34Z" transform="translate(-9.14 -87)"/></g></g><g class="cls-8"><g class="cls-11"><path class="cls-5" d="M297.47,505.34V630.9L451.05,414.66Z" transform="translate(-9.14 -87)"/></g></g></svg>